<?xml version="1.0" encoding="utf-8"?>
<!-- Generator: Adobe Illustrator 26.5.0, SVG Export Plug-In . SVG Version: 6.00 Build 0)  -->
<svg version="1.1" id="Layer_1" xmlns="http://www.w3.org/2000/svg" xmlns:xlink="http://www.w3.org/1999/xlink" x="0px" y="0px"
	 viewBox="0 0 2500 1424" style="enable-background:new 0 0 2500 1424;" xml:space="preserve">
<style type="text/css">
	.st0{opacity:0.5;fill:#D3D3D3;}
	.st1{opacity:0.5;}
	.st2{fill:#D3D3D3;}
</style>
<path class="st0" d="M812.6,1272.5H710.4V867.2h102.3V1272.5L812.6,1272.5z"/>
<g transform="matrix(10.33728 0 0 -10.33728 -861.345 7843.84)" class="st1">
	<g>
		<g>
			<path class="st2" d="M241.7,663.7c-0.4,0.2-3.6,2.1-8.3,2.1c-6.4,0-10.8-4.4-10.8-10.5c0-5.8,4.2-10.5,10.8-10.5
				c4.7,0,7.9,1.8,8.3,2.1v-10.5c-1.2-0.3-4.6-1.4-9-1.4c-11.1,0-20.9,7.7-20.9,20.3c0,11.7,8.8,20.3,20.9,20.3c4.6,0,8.1-1.1,9-1.4
				V663.7z M138.4,663.7c-0.4,0.2-3.6,2.1-8.3,2.1c-6.4,0-10.8-4.4-10.8-10.5c0-5.8,4.2-10.5,10.8-10.5c4.7,0,7.9,1.8,8.3,2.1v-10.5
				c-1.2-0.3-4.6-1.4-9-1.4c-11.1,0-20.9,7.7-20.9,20.3c0,11.7,8.8,20.3,20.9,20.3c4.7,0,8.1-1.1,9-1.4V663.7z M272.8,665.6
				c-5.9,0-10.2-4.6-10.2-10.3c0-5.7,4.4-10.3,10.2-10.3c5.9,0,10.2,4.6,10.2,10.3C283.1,661,278.7,665.6,272.8,665.6 M293.5,655.3
				c0-11.2-8.7-20.3-20.7-20.3c-12.1,0-20.7,9.1-20.7,20.3c0,11.2,8.6,20.3,20.7,20.3C284.9,675.6,293.5,666.5,293.5,655.3
				 M199.4,666c-0.1,0-4.3,1.2-7.7,1.2c-4,0-6.1-1.3-6.1-3.2c0-2.4,2.9-3.2,4.5-3.7l2.7-0.9c6.4-2,9.3-6.4,9.3-11.2
				c0-9.8-8.7-13.2-16.2-13.2c-5.3,0-10.2,1-10.7,1.1v9c0.9-0.2,5-1.5,9.3-1.5c4.9,0,7.2,1.4,7.2,3.7c0,2-2,3.1-4.4,3.9
				c-0.6,0.2-1.5,0.5-2.1,0.7c-5.5,1.7-10.1,5-10.1,11.5c0,7.3,5.5,12.3,14.6,12.3c4.8,0,9.3-1.2,9.6-1.2L199.4,666L199.4,666z"/>
			<path class="st2" d="M98.1,717c0,2.7-2.2,4.9-4.9,4.9c-2.7,0-4.9-2.2-4.9-4.9v-10.3c0.1-2.7,2.3-4.9,5-4.8
				c2.6,0.1,4.7,2.2,4.8,4.8V717z M125,730.5c0,2.7-2.2,4.9-4.9,4.9c-2.7,0-4.9-2.2-4.9-4.9v-23.8c0-2.7,2.2-4.9,4.9-4.9
				c2.7,0,4.9,2.2,4.9,4.9l0,0V730.5L125,730.5z M152,749c0,2.7-2.2,4.9-4.9,4.9c-2.7,0-4.9-2.2-4.9-4.9V697c0.1-2.7,2.3-4.9,5-4.8
				c2.6,0.1,4.7,2.2,4.8,4.8V749z M179,730.5c0,2.7-2.2,4.9-4.9,4.9c-2.7,0-4.9-2.2-4.9-4.9v-23.8c0-2.7,2.2-4.9,4.9-4.9
				c2.7,0,4.9,2.2,4.9,4.9l0,0V730.5L179,730.5z M205.9,717c0,2.7-2.2,4.9-4.9,4.9c-2.7,0-4.9-2.2-4.9-4.9v-10.3
				c0-2.7,2.2-4.9,4.9-4.9s4.9,2.2,4.9,4.9l0,0V717z M232.9,730.5c-0.1,2.7-2.3,4.8-5,4.8c-2.6-0.1-4.7-2.2-4.8-4.8v-23.8
				c0-2.7,2.2-4.9,4.9-4.9c2.7,0,4.9,2.2,4.9,4.9l0,0V730.5L232.9,730.5z M259.9,749c0,2.7-2.2,4.9-4.9,4.9c-2.7,0-4.9-2.2-4.9-4.9
				V697c-0.1-2.7,2-5,4.7-5.1c2.7-0.1,5,2,5.1,4.7c0,0.1,0,0.3,0,0.4V749z M286.9,730.5c0,2.7-2.2,4.9-5,4.9c-2.7,0-4.9-2.2-4.9-4.9
				v-23.8c0-2.7,2.2-4.9,4.9-4.9c2.8,0,5,2.2,5,4.9V730.5L286.9,730.5z M313.8,717c0,2.7-2.2,4.9-4.9,4.9c-2.7,0-4.9-2.2-4.9-4.9
				v-10.3c0-2.7,2.2-4.9,4.9-4.9c2.7,0,4.9,2.2,4.9,4.9L313.8,717L313.8,717z"/>
			<path class="st2" d="M308.2,640.9v-0.6h-1.7v-4.5h-0.7v4.5H304v0.6L308.2,640.9L308.2,640.9z M308.6,640.9h1.1l1.5-4.2h0l1.5,4.2
				h1.1v-5.2h-0.7v4.2h0l-1.6-4.2h-0.7l-1.5,4.2h0v-4.2h-0.7V640.9L308.6,640.9z"/>
		</g>
	</g>
</g>
</svg>
