<?xml version="1.0" encoding="utf-8"?>
<!-- Generator: Adobe Illustrator 26.5.0, SVG Export Plug-In . SVG Version: 6.00 Build 0)  -->
<svg version="1.1" id="Layer_1" xmlns="http://www.w3.org/2000/svg" xmlns:xlink="http://www.w3.org/1999/xlink" x="0px" y="0px"
	 viewBox="0 0 2500 741.5" style="enable-background:new 0 0 2500 741.5;" xml:space="preserve">
<style type="text/css">
	.st0{opacity:0.5;fill:#D3D3D3;}
</style>
<path class="st0" d="M0,189.6c0,14.7,25,50.6,49.4,71.2c9.1,7.9,17.4,15,18.2,15.9c2.9,3.5,59.2,40.9,61.8,40.9
	c1.2,0,2.9,2.1,4.1,4.4c0.9,2.4,4.1,4.4,7.4,4.4c2.9,0,6.2,2.1,7.4,4.4c0.9,2.4,4.1,4.4,6.8,4.4c5.9,0,24.4,15.6,24.4,20.3
	c0,3.5-30-11.5-33.3-16.8c-1.2-1.8-4.1-3.5-6.5-3.5c-4.1,0-22.4-8.8-25-12.1c-0.9-1.2-4.4-2.6-7.9-3.8c-3.8-1.2-6.8-3.5-6.8-5
	c0-1.5-2.6-2.6-5.9-2.6c-2.9,0-6.8-1.8-7.9-3.8c-1.2-2.1-7.7-7.1-14.1-10.9c-13.2-7.9-14.1-8.8-37.4-31.8
	c-14.7-14.1-17.1-15.6-17.1-10c0,13.8,29.1,48.6,53.9,64.7c6.8,4.4,12.9,8.5,13.8,9.4c0.9,0.9,6.8,4.4,13.2,7.9
	c6.5,3.2,16.5,8.8,22.1,12.4c5.6,3.2,12.4,6.8,14.7,7.9c21.8,8.5,47.7,23.5,57.4,33.5c6.2,6.5,12.7,11.8,13.8,11.8
	c4.1,0,2.6-8.2-2.4-13.2c-6.2-5.9-3.2-18,4.7-20.6c6.8-2.1,16.2,7.1,19.4,18.2c0.9,3.8,2.9,6.8,4.1,6.8c1.5,0,3.2,2.4,4.1,5.3
	c0.9,2.9,7.7,11.8,15,19.7c13.2,14.7,16.5,22.1,9.7,22.1c-2.1,0-7.7-3.2-12.4-7.1c-7.4-5.6-10-6.2-16.8-3.8
	c-5.9,2.4-10.3,2.1-18.2-2.1c-5.9-2.6-11.5-6.2-12.4-7.7c-0.9-1.8-4.7-2.9-8.5-2.9c-3.5,0-9.1-2.1-12.4-4.4
	c-8.2-6.2-12.7-5.3-16.2,3.5c-2.1,5.9-3.8,6.8-6.2,4.4c-2.1-2.1-5.3-3.5-7.7-3.5s-10.9-4.1-18.8-8.8c-14.1-8.8-23-11.2-23-6.2
	c0,1.5,8.2,8.8,18.5,16.2c10,7.4,19.7,14.7,21.8,16.5c2.1,1.5,5,2.9,7.1,2.9c1.8,0,6.8,1.8,10.9,4.1c11.5,5.9,27.1,10.9,40.3,13.5
	c6.5,1.2,15,3.5,19.1,5c33,13.8,32.1,13.5,36.8,9.7c4.1-3.2,5.9-2.9,11.2,2.4s5.9,7.4,2.9,12.1s-1.5,7.4,10.3,18.8
	c7.7,7.4,17.7,17.4,22.1,22.4c7.1,7.7,10.6,9.1,21.2,9.1c12.7,0,15.3,1.5,23,12.7c2.1,3.2,8.8,6.2,16.2,7.1
	c13.2,1.8,16.5-1.8,5.9-6.5c-13.8-6.2-7.7-22.1,8.5-22.1c3.8,0,9.7,3.2,13.2,7.4c8.5,9.7,11.2,9.4,11.2-2.4c0-12.7-4.4-16.8-18-16.8
	c-12.1,0-20-6.2-13.8-10.9c6.2-4.4,34.7-17.1,45-19.7c9.7-2.6,28,3.2,36.5,11.2c10.6,10,12.1,9.7,12.1-2.9c0-7.1-2.9-15.3-8.8-23.8
	c-4.7-7.1-8.8-14.1-8.8-15.9c0-7.9-34.7-25.9-50.6-26.2c-2.6,0-8.5-3.2-12.9-7.1l-8.2-6.8l4.7-12.4c4.4-11.2,4.4-13.5,0.3-25.6
	c-3.2-9.7-7.4-15-15.3-19.7c-17.7-10.9-40.9-20.3-60.6-25.3c-5-1.2-11.8-3.8-15.3-5.6c-3.5-2.1-9.4-3.5-13.2-3.5
	c-3.8,0-10.6-2.1-15.3-4.4c-4.4-2.4-11.2-4.4-14.7-4.4s-9.1-2.1-12.4-4.4c-2.9-2.4-7.9-4.4-10.9-4.4c-3.2,0-10.3-2.1-16.2-4.7
	c-28.3-12.4-55.9-26.2-64.4-32.4c-5-3.8-10.6-7.1-12.1-7.1s-15-12.1-29.7-26.5c-15-14.7-28-26.5-28.8-26.5c-2.6,0,2.6,19.1,6.8,23.8
	c2.4,2.4,4.1,5.9,4.1,7.4c0.3,5,10,14.4,36.8,34.7c32.4,25,40.9,33,37.1,35.3c-2.4,1.5-20-5.9-23.8-10.3c-0.9-0.9-6.2-4.1-11.8-7.4
	c-5.6-2.9-15.9-9.7-22.4-14.4c-6.8-5-15.3-10.9-18.8-13.2c-18.8-12.9-68.3-56.5-78-68.6C1.2,184.9,0,184.6,0,189.6L0,189.6z
	 M199.5,340.9c0.9,2.4-0.3,3.5-2.6,2.6c-2.1-0.6-4.4-2.9-5-5c-0.9-2.4,0.3-3.5,2.6-2.6C196.6,336.5,198.9,338.8,199.5,340.9z
	 M1653.9,328.8c-25,7.1-38.3,23.8-38.3,48.9c0,13.8,0.9,16.2,11.2,25.9c5.9,5.6,20.3,14.7,31.5,20.3c33,15.6,36.8,18.8,36.8,32.1
	c0,9.7-1.5,12.1-10,17.4c-12.7,7.9-24.1,7.7-38.6-1.2c-18.2-11.2-18.8-11.5-25.3-5.6c-12.4,11.2-12.1,14.4,2.1,24.4
	c10.6,7.4,17.7,9.7,32.1,11.2c30,2.6,43.6-0.6,57.1-14.4c11.8-11.5,12.1-12.4,12.1-32.1c0-26.5-5-32.4-45.6-52.4
	c-16.8-8.5-31.2-17.4-32.1-19.7c-6.2-16.2,6.2-30.6,26.2-30.6c10.3,0,27.7,6.8,31.2,12.4c2.4,3.5,11.5-0.3,11.5-5
	c0-2.1,1.8-5.3,4.1-7.4c11.2-9.1-10.6-23-38.8-24.7C1670.1,327.4,1658,327.7,1653.9,328.8L1653.9,328.8z M2323.7,329.4
	c-10.3,1.2-15.3,3.2-17.7,7.4c-1.8,3.2-6.5,11.2-10.3,17.7c-4.1,6.5-10.6,17.7-14.4,25c-10.6,20.6-21.5,25.9-31.5,15.9
	c-4.1-4.1-4.7-10.3-4.1-34.7l0.9-29.7l-14.7-0.9l-14.4-0.9v170.4l11.8,1.5c6.5,0.6,13.2,0.6,14.7,0c1.8-0.6,2.6-12.9,2.1-32.7
	c-1.2-28.3-0.6-32.4,4.7-38.8c5.9-7.1,6.5-7.1,14.1-2.9c4.4,2.4,9.1,6.5,10.3,8.8c1.5,2.4,8.5,14.4,15.9,26.8
	c7.4,12.4,13.2,23.8,13.2,25.3c0,6.2,12.1,13.2,23.5,13.8c17.7,0.9,19.1-1.5,9.4-16.2c-5-7.1-12.1-18.8-15.9-26.2
	s-10.6-18.5-14.7-25c-4.1-6.5-8.2-14.7-9.4-18c-2.1-6.8,3.2-21.8,7.7-21.8c1.2,0,2.4-1.8,2.4-4.1s2.1-6.2,4.4-8.5s7.1-9.7,10.9-16.5
	c11.5-20.9,12.7-23,16.8-28C2345.2,330,2340.2,327.7,2323.7,329.4L2323.7,329.4z M620.1,335c-15,7.1-33.3,25.3-40.6,40.3
	c-4.4,9.7-5.9,18.5-5.9,39.1c-0.3,30.6,5.3,45.6,23.5,64.4c20,20.9,24.4,22.7,62.1,22.7c35.9,0,40-1.2,58.9-18.2
	c6.8-6.2,6.8-7.1,2.4-11.5c-4.7-4.7-5.9-4.4-20.6,5.6c-14.7,10.3-17.1,10.9-38.6,10.9c-17.1,0-25.9-1.5-34.4-5.9
	c-10.9-5.6-32.4-28.3-32.4-34.4c0-1.5-2.1-7.4-4.7-12.7c-3.5-6.8-4.4-13.8-3.2-24.7c4.4-39.1,35.9-69.5,72.7-69.5
	c14.4,0,38.8,8.2,42.7,14.7c2.6,4.4,15.3,3.5,17.1-1.2c2.1-5-5-11.8-20.3-19.4C683.3,327.4,636.8,327.4,620.1,335L620.1,335z
	 M785.8,330.9c-1.5,31.2,0.6,168,2.6,170.1c6.8,6.8,9.1-2.4,9.1-33c0-20.6,1.2-32.7,3.5-35c2.1-2.1,11.5-3.5,22.1-3.5
	c18,0,18.5,0.3,25.9,10.9c4.1,6.2,7.4,12.7,7.4,14.7s1.2,3.8,2.9,3.8c1.5,0,3.5,3.2,4.7,7.4c0.9,3.8,3.5,8.5,5.9,10.6
	c2.4,1.8,4.1,5.6,4.1,8.2c0,8.5,12.7,18.5,20,15.9c6.2-2.4,6.2-2.6-3.2-18.5c-5.3-8.8-14.4-25.3-19.7-36.5
	c-7.9-16.2-9.1-20.9-5.9-21.8c7.9-2.6,20-19.1,23.8-32.4c2.9-10.3,2.9-15.9,0-26.2c-7.7-29.1-21.5-36.2-70.3-36.2
	C800.8,329.4,785.8,330,785.8,330.9L785.8,330.9z M854.3,347.4c15.3,7.9,19.7,14.7,19.7,30.6c0,25.9-14.4,36.8-48.9,36.8
	c-26.5,0-27.7-1.5-27.7-35.3s1.2-35.3,28.3-35.3C837.8,344.1,850.8,345.6,854.3,347.4L854.3,347.4z M993.2,336.2
	c-19.7,10.3-37.7,31.2-43.6,50.9c-2.6,9.4-5,22.7-5,29.1c0.3,12.7,8.8,40.9,14.4,46.5c1.8,1.8,3.2,4.1,3.2,5.6
	c0,4.1,19.4,21.5,30.9,27.4c9.1,4.7,17.1,5.9,40.9,5.9c29.1,0,30-0.3,45.3-10.3c30.9-20.3,45.9-57.1,38.6-95.1
	c-4.1-21.2-8.2-28.8-23.8-43.6c-18.8-18.2-32.7-23.2-63-23C1010.9,330,1002.4,331.5,993.2,336.2L993.2,336.2z M1055.3,345.6
	c2.9,2.4,7.7,4.4,10,4.4c5.6,0,26.2,21.2,33.3,34.4c7.4,13.8,6.8,48.9-1.2,63.9c-7.4,13.8-18,24.7-32.4,33.5
	c-15,9.1-48.9,9.1-64.2,0c-12.9-7.7-26.8-20-26.8-24.1c0-1.5-1.8-5-4.1-7.4c-6.8-7.9-10-33.5-6.8-51.8c2.6-13.5,5.6-19.1,16.5-30.6
	c7.4-7.9,18.8-17.1,25.3-20.3C1019.4,340,1046.8,339.1,1055.3,345.6L1055.3,345.6z M1164.8,331.2c-1.8,1.8,1.2,16.2,6.2,28.5
	c1.8,4.7,3.2,12.1,3.2,16.5c0,4.4,1.2,9.1,2.9,10.9c1.5,1.5,4.1,8.8,5.6,15.9c4.1,19.4,9.1,38.6,12.7,48.6
	c1.8,4.7,4.1,14.1,5.3,20.6c2.6,14.4,7.4,26.8,11.5,29.1c1.5,0.9,6.2,0.6,10.3-1.2c5.9-2.1,7.7-4.7,7.7-11.8c0-5,1.8-13.5,4.1-18.8
	c2.1-5.3,5-15.3,6.2-21.8c1.2-6.8,3.2-12.9,4.7-14.1c1.5-0.9,2.6-4.4,2.6-7.9c0-3.5,2.1-12.4,4.4-19.7c2.4-7.4,5-16.8,5.9-21.5
	c0.9-4.4,3.5-7.9,5.9-7.9c5,0,16.2,22.7,16.2,33c0.3,3.8,2.1,10,4.4,14.1c2.4,4.1,4.1,10.9,4.4,15c0,4.4,2.1,11.8,4.4,16.2
	c2.4,4.7,4.4,11.2,4.4,14.4c0,7.4,6.8,27.4,10.6,30.9c1.5,1.2,6.2,1.8,10.9,0.9c6.5-1.2,7.9-2.9,7.9-10.9c0-5,2.1-12.9,4.4-17.7
	c2.4-4.4,4.4-11.5,4.4-15.3c0-4.1,2.1-12.1,4.4-18c2.4-5.6,4.4-13.2,4.4-16.8c0-3.2,2.1-10,4.4-14.7c2.4-4.4,4.4-11.5,4.4-15.3
	c0-4.1,2.1-12.1,4.4-18c2.4-5.6,4.4-13.2,4.4-16.8c0-3.2,2.1-10,4.4-14.7c6.5-12.1,5.6-14.1-5-12.9c-9.1,0.9-9.7,1.8-11.5,14.4
	c-1.2,7.7-3.5,16.5-5.3,19.7c-1.8,3.2-3.2,9.1-3.2,12.9s-2.1,10.6-4.4,15.3c-2.4,4.4-4.4,11.5-4.4,15.3c0,4.1-2.1,12.1-4.4,18
	c-2.4,5.6-4.4,13.5-4.4,17.1c0,9.7-2.9,16.2-7.1,16.2c-4.4,0-16.5-23.2-16.5-31.5c0-3.2-2.1-10.9-4.4-16.5c-2.4-5.9-4.4-13.8-4.4-18
	c0-3.8-2.1-10.9-4.4-15.3c-2.4-4.7-4.4-11.5-4.4-14.7c0-3.5-2.1-10.3-4.4-14.7c-2.4-4.7-4.4-10.9-4.4-13.8c0-3.2-2.4-5-6.8-5
	c-9.1,0-13.8,5.3-13.8,15.9c0,5-2.1,12.9-4.4,17.7c-2.4,4.4-4.4,11.2-4.4,14.7c0,3.2-2.1,10-4.4,14.7c-2.4,4.4-4.4,11.5-4.4,15.6
	s-1.8,11.5-4.1,16.5c-2.4,5.3-5,14.4-6.2,20.3c-0.9,6.2-2.9,11.8-4.4,12.7c-4.4,2.6-15-15.3-17.7-30c-3.2-17.1-8.2-37.4-12.4-49.4
	c-1.8-5-4.1-14.1-5.3-20.6c-3.5-18.8-8.2-28-14.1-28C1168.9,329.4,1165.7,330,1164.8,331.2L1164.8,331.2z M1424.4,330.9
	c0,0.9,0,38.8-0.3,84.5v83.3l41.8,0.9c37.7,0.6,43,0.3,54.7-5.6c30.9-15,45-39.4,45-78c0-20.6-1.2-27.4-7.9-40.9
	c-15.6-33.3-41.2-45.3-97.1-45.6C1440.6,329.4,1424.4,330,1424.4,330.9L1424.4,330.9z M1504.7,349.1c36.8,12.1,55.6,54.4,41.8,94.5
	c-5.9,17.1-17.7,29.4-36.2,38c-13.2,5.9-19.1,6.8-41.2,6.2l-25.6-0.9l-0.9-67.7c-0.3-37.1,0-69.2,0.6-71.2
	C1445.6,342.4,1486.2,343,1504.7,349.1L1504.7,349.1z M1756.9,341.2V353h25.9c16.2,0,27.1,1.2,29.4,3.5c2.6,2.6,3.5,23,3.5,73.3
	c0,49.7,0.9,70,3.2,70.9c2.1,0.6,8.8,0.3,15-0.6l11.8-1.5l-0.6-67.1c0-42.4,0.9-68.9,2.9-72.7c2.6-5.3,6.2-5.9,28-5.9
	c13.8,0,25-0.9,25.3-2.4c0-1.2,0.6-6.5,1.5-11.8l1.2-9.4h-147.1L1756.9,341.2z M1945.3,414.5v85.1l11.5,1.2c6.5,0.6,13.2,0.6,14.7,0
	c2.1-0.6,3.2-12.4,3.2-30.3c0-28.8,0-29.4,7.7-32.1c4.4-1.8,12.1-2.4,17.4-1.2c9.7,1.8,15.9,10.6,34.4,48.9l6.8,14.1h17.1
	c9.1,0,16.8-0.6,16.8-1.5s-3.2-6.8-7.4-13.2c-4.1-6.5-7.4-12.4-7.4-13.2c0-0.6-3.8-7.7-8.5-15.3c-13.5-22.7-13.8-28.8-2.1-40.3
	c11.2-11.2,15.3-29.1,11.8-49.7c-2.4-15.3-9.4-24.4-23.8-31.8c-9.1-4.7-17.4-5.6-51.5-5.6h-40.6V414.5z M2020.9,358.8
	c15,9.1,15.9,35,1.5,45.9c-5,4.1-34.7,5.6-43,2.4c-7.4-2.6-6.8-46.8,0.6-50.9C1988.5,351.2,2010.6,352.4,2020.9,358.8L2020.9,358.8z
	 M2125.7,413.9c0.3,46.5,1.2,85.3,2.6,86.2c1.2,0.9,7.4,1.2,14.1,0.6l11.8-1.2v-82.1c0-45,0.3-83,0.9-84.5c0.3-1.2-6.2-2.4-14.7-2.9
	l-15-0.9L2125.7,413.9z M2393.2,415.1l0.9,85.6l53-0.3h53V478l-36.5-0.3c-27.1-0.3-37.1-1.5-38.8-4.4c-1.5-2.4-2.4-12.7-2.1-23.2
	l0.9-19.1l30.3-0.9l30-0.9v-28.8l-30-0.9l-30.3-0.9l-0.9-19.4c-0.6-13.5,0.3-20.3,3.2-22.7c2.1-1.8,18-3.8,36.2-4.1l32.1-0.9
	l0.9-11.2l0.9-10.9h-103.3L2393.2,415.1z"/>
</svg>
