<?xml version="1.0" encoding="utf-8"?>
<!-- Generator: Adobe Illustrator 26.5.0, SVG Export Plug-In . SVG Version: 6.00 Build 0)  -->
<svg version="1.1" id="Layer_1" xmlns="http://www.w3.org/2000/svg" xmlns:xlink="http://www.w3.org/1999/xlink" x="0px" y="0px"
	 viewBox="0 0 2500 1005.9" style="enable-background:new 0 0 2500 1005.9;" xml:space="preserve">
<style type="text/css">
	.st0{opacity:0.5;fill:#D3D3D3;}
</style>
<path class="st0" d="M1062.2,358.3c-32.3,0-65.8,8.8-107.3,31l23.1,57c36-20.1,65.8-28.9,87.6-28.9c24.7,0,35.6,9.2,35.6,21.4v0.8
	c0,8.4-6.7,13-23.1,14.7l-28.5,2.9c-71.3,7.5-100.6,38.6-100.6,81.3v2.9c0,40.7,33.5,72.5,80.9,72.5c31.2,0,58.3-13.2,74.8-36.4
	l5.3,32.2h64.6V463.5C1174.5,394.3,1134.7,358.3,1062.2,358.3 M1055.9,558.2c-23.9,0-35.2-9.2-35.2-23.5v-0.8
	c0-12.6,7.1-21.8,33.1-25.6l11.3-1.7c16.5-2.3,26.7-5.3,36.1-11v18.6C1101.2,542.3,1083.6,558.2,1055.9,558.2"/>
<path class="st0" d="M455.2,359.9l-82.6-82.6L290,359.9l41.1,41.1L124,608.1l82.6,82.6l82.6-82.6L248.1,567L455.2,359.9z M0.3,484.4
	l207.1-207.1l82.6,82.6L82.9,567L0.3,484.4z M289.2,608.1L496.3,401l82.6,82.6L371.8,690.7L289.2,608.1z"/>
<path class="st0" d="M1216.5,274.4h73.4v335.4h-73.4V274.4z M825.8,358.3c-33.3,0-60.1,14.8-74.9,37.9l-5.6-33.7h-64.6v331.2h73.4
	V578.8c14,21.5,40.4,35.1,71.7,35.1c58.7,0,106.5-52,106.5-123.7v-8.4C932.2,410.3,884.5,358.3,825.8,358.3 M856.8,488.2
	c0,37.7-19.7,65-52.4,65S752,526,752,488.2V484c0-37.7,19.7-65,52.4-65s52.4,27.2,52.4,65V488.2z M2279.6,358.3
	c-75,0-127.9,52-127.9,123.7v8.4c0,71.7,52.8,123.7,127.9,123.7s127.9-52,127.9-123.7v-8.4C2407.4,410.3,2354.6,358.3,2279.6,358.3
	 M2332,488.2c0,37.7-19.7,65-52.4,65s-52.4-27.2-52.4-65V484c0-37.7,19.7-65,52.4-65s52.4,27.2,52.4,65V488.2z M2476.6,373.4v-1.3
	c0-7.1-5.4-12.2-15.1-12.2h-16.8v38.6h8v-13h8.9l6.7,13h8.8l-8.2-15.3C2473.8,381.7,2476.6,378,2476.6,373.4 M2452.7,367.1h8.8
	c5,0,7.1,1.7,7.1,5.5v0.4c0,3.4-2.1,5.4-7.1,5.4h-8.8V367.1z"/>
<path class="st0" d="M2459.8,339.4c-22.6,0-39.8,17.2-39.8,39.8c0,22.6,17.2,39.8,39.8,39.8c22.6,0,39.8-17.2,39.8-39.8
	S2482.5,339.4,2459.8,339.4 M2459.8,413.6c-19.7,0-34-14.3-34-34.4c0-20.1,14.3-34.4,34-34.4c19.7,0,34,14.3,34,34.4
	C2493.8,399.3,2479.5,413.6,2459.8,413.6 M1862.5,274.4h73.4v335.4h-73.4V274.4z M2080.5,553.2c-21.4,0-29.3-10.5-29.3-33.1v-101
	h86.4v-56.6h-86.4v-56.6l-73.4,10.9v210.4c0,57.4,29.3,86.8,88,86.8c26,0,56.6-8,81.7-22.2l-21-52
	C2111.9,547.7,2091.4,553.2,2080.5,553.2 M1708.2,358.3c-32.3,0-65.8,8.8-107.3,31l23.1,57c36-20.1,65.8-28.9,87.6-28.9
	c24.7,0,35.6,9.2,35.6,21.4v0.8c0,8.4-6.7,13-23.1,14.7l-28.5,2.9c-71.3,7.5-100.6,38.6-100.6,81.3v2.9c0,40.7,33.5,72.5,80.9,72.5
	c31.2,0,58.3-13.2,74.8-36.4l5.3,32.2h64.6V463.5C1820.6,394.3,1780.7,358.3,1708.2,358.3 M1701.9,558.2c-23.9,0-35.2-9.2-35.2-23.5
	v-0.8c0-12.6,7.1-21.8,33.1-25.6l11.3-1.7c16.5-2.3,26.7-5.3,36-11v18.6C1747.2,542.3,1729.6,558.2,1701.9,558.2 M1450.4,358.3
	c-75,0-127.9,52-127.9,123.7v8.4c0,71.7,52.8,123.7,127.9,123.7c75,0,127.9-52,127.9-123.7v-8.4
	C1578.2,410.3,1525.4,358.3,1450.4,358.3 M1502.8,488.2c0,37.7-19.7,65-52.4,65c-32.7,0-52.4-27.2-52.4-65V484
	c0-37.7,19.7-65,52.4-65c32.7,0,52.4,27.2,52.4,65V488.2z M1750.7,669.3h18.8l26,34.2h0.3v-34.2h17.2v60.3h-18.2l-26.6-35.1h-0.3
	v35.1h-17.2V669.3z M1835.8,669.3h52.8l0.7,14.6h-35.4v8.3h27.8v13.4h-27.8v9.4h36.5l-0.7,14.6h-53.8L1835.8,669.3z M1927.1,684.8
	h-21.1l0.7-15.5h59l0.7,15.5h-21.1v44.8h-18.2L1927.1,684.8z M1980.9,669.3h19.3l9.8,41.9h1l12.7-41.9h17.7l12.5,41.9h1l9.6-41.9
	h18.4l-15.9,60.3h-23.7l-11-36.4h-0.5l-11.2,36.4h-23.8L1980.9,669.3z M2096.3,699.4c0-19.7,13.4-32,34.5-32
	c21.1,0,34.5,12.3,34.5,32s-13.4,32-34.5,32C2109.6,731.4,2096.3,719.1,2096.3,699.4 M2147.2,699.4c0-10.4-6-16.6-16.5-16.6
	c-10.4,0-16.5,6.2-16.5,16.6c0,10.4,6,16.6,16.4,16.6C2141.1,716.1,2147.2,709.9,2147.2,699.4 M2184.8,669.3h35.2
	c16,0,23.9,7.6,23.9,21.6c0,9.6-4,16.2-11.7,19.3l14.3,19.4h-20.5l-11.1-15.9h-11.9v15.9h-18.1V669.3z M2217.6,699.6
	c6,0,8.2-3.4,8.2-7.9c0-4.6-2.2-7.8-8.2-7.8h-14.7v15.8H2217.6z M2267.4,669.3h18.1v22.2h7.4l17.7-22.2h20.3l0.1,0.1l-23.1,28.9
	l24.4,31.3l-0.1,0.1h-21.1l-18.3-23.2h-7.3v23.2h-18.1V669.3z M2346.2,725.6v-16.5h0.1c10.1,5.1,19.9,7.6,28.4,7.6
	c6.5,0,9.7-1.5,9.7-4.6s-2.2-3.8-15.1-5.9c-14.1-2.2-23.5-6.5-23.5-18.6c0-11.3,9.9-20,29.3-20c7.8,0,15.9,1.6,23.4,4.8v16.4
	l-0.1,0.1c-7.2-4.1-16.8-6.7-24.6-6.7c-6.9,0-9.6,1.6-9.6,4.4c0,3.5,4.2,3.9,14.8,5.7c14.1,2.4,23.5,6.4,23.5,19.1
	c0,9.9-7.4,19.8-28.7,19.8C2363.3,731.2,2355,729.1,2346.2,725.6"/>
</svg>
